<?xml version="1.0" encoding="UTF-8" standalone="no"?>
<!DOCTYPE svg PUBLIC "-//W3C//DTD SVG 1.1//EN" "http://www.w3.org/Graphics/SVG/1.1/DTD/svg11.dtd">
<svg width="100%" height="100%" viewBox="0 0 687 150" version="1.1" xmlns="http://www.w3.org/2000/svg" xmlns:xlink="http://www.w3.org/1999/xlink" xml:space="preserve" xmlns:serif="http://www.serif.com/" style="fill-rule:evenodd;clip-rule:evenodd;stroke-linejoin:round;stroke-miterlimit:2;">
    <g id="Layer_1-2" transform="matrix(1,0,0,1,-151,-424)">
        <g>
            <g>
                <path d="M184.94,526.49C181.65,524.2 179.47,522.69 179.47,519.59C179.47,517.22 181.21,515.63 183.81,515.63C185.07,515.63 187.32,515.93 189.31,519.11L189.66,519.11L189.66,514.92C189.26,514.78 187.38,514.03 184.07,514.03C179.16,514.03 175.99,516.7 175.99,520.82C175.99,524.53 178.34,526.83 182.66,529.75C186.31,532.15 188.04,533.85 188.04,537C188.04,539.84 185.93,541.91 183.01,541.91C179.19,541.91 176.89,539.32 175.58,534.56L175.14,534.56L175.14,541.55C176.45,542.38 179.06,543.6 183,543.6C188.2,543.6 191.69,540.4 191.69,535.65C191.69,531.41 188.57,529.14 184.95,526.51L184.95,526.48L184.94,526.49Z" style="fill:rgb(9,39,36);fill-rule:nonzero;"/>
                <path d="M595.39,514.89L597.26,516.97L597.26,540.72L595.39,542.79L595.39,543.16L603.11,543.16L603.11,542.79L601.24,540.72L601.24,516.97L603.11,514.89L603.11,514.53L595.39,514.53L595.39,514.89Z" style="fill:rgb(9,39,36);fill-rule:nonzero;"/>
                <path d="M630.85,537.27L630.82,537.3C628.31,540.42 625.29,542.01 621.86,542.01C615.48,542.01 610.67,536.26 610.67,528.63C610.67,522.2 614.41,515.69 621.55,515.69C625.2,515.69 628.11,517.17 630.21,520.09L630.24,520.13L630.59,520.13L630.59,515.33L630.53,515.33C628.51,514.74 625.33,514.07 621.74,514.07C617.18,514.07 613.24,515.66 610.37,518.65C607.71,521.41 606.26,525.1 606.26,529.04C606.26,537.51 612.77,543.66 621.74,543.66C627.14,543.66 630.76,541.88 631.15,541.67L631.2,541.64L631.2,537.3L630.85,537.3L630.85,537.27Z" style="fill:rgb(9,39,36);fill-rule:nonzero;"/>
                <path d="M544.53,514.53L538.87,514.53L538.87,514.9L540.74,516.96L540.74,532.92C540.74,537.88 537.5,541.09 532.48,541.09C526.85,541.09 523.75,538.2 523.75,532.96L523.75,516.95L525.62,514.89L525.62,514.52L517.9,514.52L517.9,514.89L519.77,516.95L519.77,533C519.77,539.76 524.15,543.62 531.81,543.62C538.22,543.62 542.69,539.25 542.69,533L542.69,516.95L544.56,514.89L544.56,514.52L544.53,514.52L544.53,514.53Z" style="fill:rgb(9,39,36);fill-rule:nonzero;"/>
                <path d="M290.9,518.13L290.9,540.72L289.03,542.79L289.03,543.16L294.69,543.16L294.69,542.79L292.83,540.72L292.83,520.29L313.14,543.16L314.63,543.16L314.63,516.97L316.49,514.89L316.49,514.53L310.84,514.53L310.84,514.89L312.7,516.97L312.7,536.96L293.04,514.53L287.58,514.53L287.58,514.89L290.9,518.13Z" style="fill:rgb(9,39,36);fill-rule:nonzero;"/>
                <path d="M591.15,536.11L587.45,541.52L577.69,541.52L577.69,516.97L579.56,514.89L579.56,514.53L571.83,514.53L571.83,514.89L573.69,516.97L573.69,540.72L571.83,542.79L571.83,543.16L591.53,543.16L591.53,536.11L591.15,536.11Z" style="fill:rgb(9,39,36);fill-rule:nonzero;"/>
                <path d="M249.76,540.72L247.89,542.79L247.89,543.16L255.61,543.16L255.61,542.79L253.74,540.72L253.74,516.97L255.61,514.89L255.61,514.53L247.89,514.53L247.89,514.89L249.76,516.97L249.76,540.72Z" style="fill:rgb(9,39,36);fill-rule:nonzero;"/>
                <path d="M211.61,514.53L211.61,514.89L213.47,516.97L206.59,527.52L199.7,516.97L201.57,514.89L201.57,514.53L192.7,514.53L192.7,514.89L195.07,516.98L203.58,529.66L203.58,540.72L201.71,542.79L201.71,543.16L209.44,543.16L209.44,542.79L207.58,540.72L207.57,528.97L215.42,516.99L217.85,514.89L217.85,514.53L211.61,514.53Z" style="fill:rgb(9,39,36);fill-rule:nonzero;"/>
                <path d="M505.45,514.53L496.1,514.53L496.1,514.9L497.97,516.96L497.97,540.72L496.1,542.78L496.1,543.15L503.82,543.15L503.82,542.78L501.96,540.72L501.96,516.02L503.89,516.02C508.54,516.02 511.33,518.64 511.33,523.03C511.33,524.47 511.01,529.37 503.76,530.44L503.76,530.98C510.54,531.07 515.41,528.22 515.41,522.51C515.41,517.57 511.59,514.52 505.43,514.52L505.45,514.53Z" style="fill:rgb(9,39,36);fill-rule:nonzero;"/>
                <path d="M491.38,537.05L488.37,541.52L478.6,541.52L478.6,528.71L487.42,528.71L489.68,530.75L490.05,530.75L490.05,525.09L489.68,525.09L487.42,527.12L478.6,527.12L478.6,516.11L487.51,516.11L490.35,519.72L490.73,519.72L490.73,514.53L472.75,514.53L472.75,514.89L474.6,516.97L474.6,540.72L472.75,542.79L472.75,543.16L491.76,543.16L491.76,537.05L491.38,537.05Z" style="fill:rgb(9,39,36);fill-rule:nonzero;"/>
                <path d="M376.11,536.5L371.98,529.53C372.86,529.07 373.62,528.46 374.24,527.75C376.35,525.31 376.9,521.92 375.62,519.1C374.29,516.2 371.37,514.52 367.58,514.52L357.85,514.52L357.85,514.89L359.72,516.95L359.72,540.71L357.85,542.77L357.85,543.14L365.57,543.14L365.57,542.77L363.71,540.71L363.71,530.56L367.76,530.56C367.9,530.56 368.02,530.56 368.21,530.53L372.81,538.45C375.94,543.98 379.18,543.68 382.04,543.12L382.04,542.73C380.97,542.39 379.23,541.69 376.14,536.46L376.11,536.49L376.11,536.5ZM367.53,529.11L363.7,529.11L363.7,516.01L366.37,516.01C370.74,516.01 372.44,519.49 372.44,522.6C372.44,525.71 370.73,529.11 367.53,529.11Z" style="fill:rgb(9,39,36);fill-rule:nonzero;"/>
                <path d="M283.29,540.74L274.09,514.53L269.58,514.53L261.12,540.75L259.27,542.79L259.27,543.16L264.84,543.16L264.84,542.79L262.97,540.72L270.76,516.42L275.38,529.57L266.47,529.57L266.82,531.16L275.93,531.16L279.3,540.72L277.43,542.79L277.43,543.16L285.15,543.16L285.15,542.79L283.29,540.74Z" style="fill:rgb(9,39,36);fill-rule:nonzero;"/>
                <path d="M353.09,540.74L343.88,514.53L339.37,514.53L330.91,540.75L329.07,542.79L329.07,543.16L334.64,543.16L334.64,542.79L332.77,540.72L340.56,516.42L345.17,529.57L336.26,529.57L336.61,531.16L345.73,531.16L349.08,540.72L347.22,542.79L347.22,543.16L354.94,543.16L354.94,542.79L353.09,540.74Z" style="fill:rgb(9,39,36);fill-rule:nonzero;"/>
                <path d="M407.35,540.74L398.13,514.53L393.63,514.53L385.16,540.75L383.33,542.79L383.33,543.16L388.89,543.16L388.89,542.79L387.03,540.72L394.82,516.42L399.43,529.57L390.53,529.57L390.87,531.16L399.99,531.16L403.34,540.72L401.48,542.79L401.48,543.16L409.21,543.16L409.21,542.79L407.35,540.74Z" style="fill:rgb(9,39,36);fill-rule:nonzero;"/>
                <path d="M239.29,536.5L235.16,529.53C236.04,529.07 236.8,528.46 237.42,527.75C239.53,525.31 240.08,521.92 238.8,519.1C237.47,516.2 234.55,514.52 230.76,514.52L221.03,514.52L221.03,514.89L222.9,516.95L222.9,540.71L221.03,542.77L221.03,543.14L228.75,543.14L228.75,542.77L226.89,540.71L226.89,516.01L229.56,516.01C233.93,516.01 235.63,519.49 235.63,522.6C235.63,525.71 233.92,529.11 230.72,529.11L226.81,529.11L227.65,530.57L230.92,530.57C231.06,530.57 231.18,530.57 231.37,530.54L235.97,538.46C239.1,543.99 242.34,543.69 245.2,543.13L245.2,542.74C244.13,542.4 242.39,541.7 239.3,536.47L239.3,536.5L239.29,536.5Z" style="fill:rgb(9,39,36);fill-rule:nonzero;"/>
                <path d="M463.99,536.5L459.86,529.53C460.74,529.07 461.5,528.46 462.12,527.75C464.23,525.31 464.78,521.92 463.5,519.1C462.17,516.2 459.25,514.52 455.46,514.52L445.73,514.52L445.73,514.89L447.6,516.95L447.6,540.71L445.73,542.77L445.73,543.14L453.45,543.14L453.45,542.77L451.59,540.71L451.59,516.01L454.26,516.01C458.63,516.01 460.33,519.49 460.33,522.6C460.33,525.71 458.62,529.11 455.42,529.11L451.51,529.11L452.35,530.57L455.62,530.57C455.76,530.57 455.88,530.57 456.07,530.54L460.67,538.46C463.8,543.99 467.04,543.69 469.9,543.13L469.9,542.74C468.83,542.4 467.09,541.7 464,536.47L464,536.5L463.99,536.5Z" style="fill:rgb(9,39,36);fill-rule:nonzero;"/>
                <path d="M424.84,527.65C428,526.43 430.11,522.96 429.6,519.73C429.36,518.16 428.03,514.51 421.1,514.51L412.1,514.51L412.1,514.88L413.97,516.94L413.97,540.7L412.1,542.76L412.1,543.13L421.91,543.13C428.48,543.13 432.09,539.08 432.27,535.1C432.41,531.8 430.17,528.25 424.82,527.64L424.83,527.64L424.84,527.65ZM420.37,516.02C422.24,516.02 423.67,516.56 424.64,517.63C425.67,518.79 425.89,520.25 425.89,521.28C425.89,524.23 424.06,527.52 421.62,527.52L417.96,527.52L417.96,516.01L420.37,516.01L420.37,516.02ZM422.06,541.7C420.24,541.7 418.84,541.27 417.97,540.91L417.97,527.67L418.76,529.04L421.12,529.04C423.41,529.04 425.3,529.7 426.55,530.92C427.63,531.99 428.23,533.47 428.23,535.11C428.23,538.35 425.92,541.7 422.07,541.7L422.06,541.7Z" style="fill:rgb(9,39,36);fill-rule:nonzero;"/>
                <path d="M561.19,527.65C564.35,526.43 566.46,522.96 565.95,519.73C565.71,518.16 564.38,514.51 557.45,514.51L548.45,514.51L548.45,514.88L550.32,516.94L550.32,540.7L548.45,542.76L548.45,543.13L558.26,543.13C564.83,543.13 568.44,539.08 568.62,535.1C568.76,531.8 566.52,528.25 561.17,527.64L561.18,527.64L561.19,527.65ZM556.72,516.02C558.59,516.02 560.02,516.56 560.99,517.63C562.02,518.79 562.24,520.25 562.24,521.28C562.24,524.23 560.41,527.52 557.97,527.52L554.31,527.52L554.31,516.01L556.72,516.01L556.72,516.02ZM558.4,541.7C556.58,541.7 555.18,541.27 554.31,540.91L554.31,527.67L555.1,529.04L557.46,529.04C559.75,529.04 561.64,529.7 562.89,530.92C563.97,531.99 564.57,533.47 564.57,535.11C564.57,538.35 562.26,541.7 558.41,541.7L558.4,541.7Z" style="fill:rgb(9,39,36);fill-rule:nonzero;"/>
            </g>
            <g>
                <path d="M587.59,491.38L587.59,491.7L590.18,494.29L590.5,494.29L593.09,491.7L593.09,491.38L590.5,488.78L590.18,488.78L587.59,491.38Z" style="fill:rgb(9,39,36);fill-rule:nonzero;"/>
                <g>
                    <path d="M489.61,488.78L487.02,491.38L487.02,491.7L489.61,494.29L489.93,494.29L492.52,491.7L492.52,491.38L489.93,488.78L489.61,488.78Z" style="fill:rgb(9,39,36);fill-rule:nonzero;"/>
                    <path d="M486.13,491.7L486.13,491.38L483.55,488.78L483.22,488.78L480.63,491.38L480.63,491.7L483.22,494.29L483.55,494.29L486.13,491.7Z" style="fill:rgb(9,39,36);fill-rule:nonzero;"/>
                </g>
                <g>
                    <path d="M472.49,462.76L475.07,460.16L475.07,459.84L472.49,457.25L472.16,457.25L469.56,459.84L469.56,460.16L472.16,462.76L472.49,462.76Z" style="fill:rgb(9,39,36);fill-rule:nonzero;"/>
                    <path d="M466.1,462.76L468.69,460.16L468.69,459.84L466.1,457.25L465.76,457.25L463.18,459.84L463.18,460.16L465.76,462.76L466.1,462.76Z" style="fill:rgb(9,39,36);fill-rule:nonzero;"/>
                </g>
                <path d="M625.33,482.53L623.48,484.59L623.48,484.97L631.19,484.97L631.19,484.59L629.33,482.53L629.33,458.79L631.19,456.72L631.19,456.35L623.48,456.35L623.48,456.72L625.33,458.79L625.33,482.53Z" style="fill:rgb(9,39,36);fill-rule:nonzero;"/>
                <path d="M500.7,465.76L506.55,465.76L506.55,466.13L504.69,468.19L504.69,485.12C504.69,492.39 500.07,495.07 494.67,494.05L494.49,492.58C498.34,493.29 500.7,490.41 500.7,485.46L500.7,465.75L500.69,465.75L500.7,465.76Z" style="fill:rgb(9,39,36);fill-rule:nonzero;"/>
                <path d="M310.78,482.53L308.92,484.59L308.92,484.97L316.63,484.97L316.63,484.59L314.77,482.53L314.77,458.79L316.63,456.72L316.63,456.35L308.92,456.35L308.92,456.72L310.78,458.79L310.78,482.53Z" style="fill:rgb(9,39,36);fill-rule:nonzero;"/>
                <g>
                    <path d="M208.56,488.78L205.97,491.38L205.97,491.7L208.56,494.29L208.88,494.29L211.47,491.7L211.47,491.38L208.88,488.78L208.56,488.78Z" style="fill:rgb(9,39,36);fill-rule:nonzero;"/>
                    <path d="M205.09,491.7L205.09,491.38L202.5,488.78L202.16,488.78L199.59,491.38L199.59,491.7L202.16,494.29L202.5,494.29L205.09,491.7Z" style="fill:rgb(9,39,36);fill-rule:nonzero;"/>
                </g>
                <g>
                    <path d="M191.44,462.76L194.03,460.16L194.03,459.84L191.44,457.25L191.1,457.25L188.53,459.84L188.53,460.16L191.1,462.76L191.44,462.76Z" style="fill:rgb(9,39,36);fill-rule:nonzero;"/>
                    <path d="M185.04,462.76L187.64,460.16L187.64,459.84L185.04,457.25L184.72,457.25L182.13,459.84L182.13,460.16L184.72,462.76L185.04,462.76Z" style="fill:rgb(9,39,36);fill-rule:nonzero;"/>
                </g>
                <path d="M219.62,465.76L225.47,465.76L225.47,466.13L223.61,468.19L223.61,485.12C223.61,492.39 218.99,495.07 213.59,494.05L213.41,492.58C217.26,493.29 219.62,490.41 219.62,485.46L219.62,465.75L219.61,465.75L219.62,465.76Z" style="fill:rgb(9,39,36);fill-rule:nonzero;"/>
                <path d="M212.58,466.13L212.58,465.76L206.73,465.76L206.73,483.33L196.25,483.33C194.6,483.33 193.27,481.99 193.27,480.35L193.27,468.19L195.13,466.13L195.13,465.76L186.02,465.76C171.77,465.76 171.77,483.27 187,483.27L187,482.69C176.15,481.31 177.99,467.19 188.03,467.19L189.29,467.19L189.29,480.22C189.29,482.84 191.4,484.95 194.02,484.95L212.6,484.95L212.6,484.58L210.74,482.52L210.74,468.2L212.6,466.14L212.59,466.14L212.58,466.13Z" style="fill:rgb(9,39,36);fill-rule:nonzero;"/>
                <g>
                    <path d="M439.59,482.53L437.73,484.59L437.73,484.97L445.44,484.97L445.44,484.59L443.59,482.53L443.59,458.79L445.44,456.72L445.44,456.35L437.73,456.35L437.73,456.72L439.59,458.79L439.59,482.53Z" style="fill:rgb(9,39,36);fill-rule:nonzero;"/>
                    <path d="M375.74,488.78L373.16,491.38L373.16,491.7L375.74,494.29L376.07,494.29L378.66,491.7L378.66,491.38L376.07,488.78L375.74,488.78Z" style="fill:rgb(9,39,36);fill-rule:nonzero;"/>
                    <g>
                        <path d="M363.81,494.29L366.4,491.7L366.4,491.38L363.81,488.78L363.48,488.78L360.9,491.38L360.9,491.7L363.48,494.29L363.81,494.29Z" style="fill:rgb(9,39,36);fill-rule:nonzero;"/>
                        <path d="M357.43,494.29L360.01,491.7L360.01,491.38L357.43,488.78L357.1,488.78L354.51,491.38L354.51,491.7L357.1,494.29L357.43,494.29Z" style="fill:rgb(9,39,36);fill-rule:nonzero;"/>
                    </g>
                    <g>
                        <path d="M343.68,462.76L346.26,460.16L346.26,459.84L343.68,457.25L343.34,457.25L340.75,459.84L340.75,460.16L343.34,462.76L343.68,462.76Z" style="fill:rgb(9,39,36);fill-rule:nonzero;"/>
                        <path d="M337.28,462.76L339.87,460.16L339.87,459.84L337.28,457.25L336.95,457.25L334.37,459.84L334.37,460.16L336.95,462.76L337.28,462.76Z" style="fill:rgb(9,39,36);fill-rule:nonzero;"/>
                    </g>
                    <path d="M434.24,456.75L434.24,456.35L426.52,456.35L426.52,456.72L428.38,458.78L428.38,483.34L419.11,483.34C417.15,483.34 415.41,483.11 413.88,482.64C419.77,479.22 421.62,473.25 422.09,469.59C419.29,468.18 415.42,467.32 411.14,467.32C406.86,467.32 403.01,468.18 400.19,469.59C400.65,473.25 402.51,479.23 408.4,482.64C406.84,483.12 405.06,483.34 403.06,483.34L397.03,483.34C394.45,483.34 392.05,481.73 390.82,479.34L390.82,468.2L392.68,466.14L392.68,465.77L386.83,465.77L386.83,485.48C386.83,490.43 384.47,493.31 380.62,492.6L380.8,494.07C386.2,495.09 390.82,492.41 390.82,485.14L390.82,483.21C392.33,484.33 393.89,484.99 396.45,484.99L405.02,484.99C407.3,484.99 409.34,484.6 411.14,483.93C412.94,484.59 414.98,484.99 417.26,484.99L434.23,484.99L434.23,484.62L432.37,482.56L432.37,458.81L434.23,456.75L434.24,456.75ZM404.81,470.47C409.17,468.74 413.15,468.74 417.51,470.47C417.51,474.69 415.49,479.06 411.17,481.48C406.85,479.06 404.83,474.69 404.83,470.47L404.81,470.47Z" style="fill:rgb(9,39,36);fill-rule:nonzero;"/>
                    <path d="M379.77,466.14L379.77,465.76L373.92,465.76L373.92,483.33L368.67,483.33C366.09,483.33 363.69,481.72 362.46,479.33L362.46,468.19L364.32,466.13L364.32,465.76L358.47,465.76L358.47,480.35C358.47,482 357.14,483.33 355.49,483.33L348.49,483.33C346.84,483.33 345.51,482 345.51,480.35L345.51,468.19L347.37,466.13L347.37,465.76L338.26,465.76C324.01,465.76 324.01,483.27 339.24,483.27L339.24,482.69C328.39,481.31 330.23,467.19 340.27,467.19L341.53,467.19L341.53,480.22C341.53,482.84 343.64,484.95 346.26,484.95L357.73,484.95C359.46,484.95 360.97,484.02 361.79,482.64C363.54,484.07 365.15,484.95 368.09,484.95L379.78,484.95L379.78,484.58L377.92,482.52L377.92,468.2L379.78,466.14L379.77,466.14Z" style="fill:rgb(9,39,36);fill-rule:nonzero;"/>
                </g>
                <path d="M493.63,466.13L493.63,465.76L487.78,465.76L487.78,483.33L477.3,483.33C475.65,483.33 474.32,481.99 474.32,480.35L474.32,468.19L476.18,466.13L476.18,465.76L467.07,465.76C452.82,465.76 452.82,483.27 468.05,483.27L468.05,482.69C457.2,481.31 459.04,467.19 469.08,467.19L470.34,467.19L470.34,480.22C470.34,482.84 472.45,484.95 475.07,484.95L493.65,484.95L493.65,484.58L491.79,482.52L491.79,468.2L493.65,466.14L493.64,466.14L493.63,466.13Z" style="fill:rgb(9,39,36);fill-rule:nonzero;"/>
                <path d="M619.75,456.74L619.75,456.35L612.03,456.35L612.03,456.72L613.89,458.78L613.89,483.34L611.07,483.34C595.29,483.58 599.71,457.36 580.17,467.33L580.17,468.76C593.11,464.07 591.82,478.38 601.36,483.34L576.36,483.34C576.26,475.39 575.38,467.33 567.63,467.33C559.5,467.33 558.92,478.76 558.92,479.19C558.71,482.77 557.1,483.34 555.84,483.34L545.73,483.34C548.39,481.7 549.97,479.21 551.14,476.51L548.95,465.72L544.53,464.89C537.18,471.9 534.44,478.32 534.42,483.34L527.07,483.34L527.07,468.21L528.93,466.15L528.93,465.78L521.5,465.78C517.75,465.78 514.2,467.52 511.92,470.51C507.6,476.14 509.99,481.8 511.16,484.99L522.21,484.99L523.07,483.49L523.07,484.99C523.07,490.53 518.57,493.12 514.25,492.45L514.46,494C516.12,494.17 520.35,495.2 524.01,491.91C525.97,490.14 527.08,487.63 527.07,484.99L534.51,484.99C535.17,490.4 539.18,493.77 543.6,493.77L550.68,493.77L552.28,491.19C551.7,488.73 549.96,486.38 547.63,484.98L557.62,484.98C559.61,484.98 561.24,484.13 562.17,482.53C563.99,484.05 565.61,484.98 568.64,484.98L571.24,484.98L572.1,483.48L572.1,484.98L600.47,484.98L601.4,483.38C603.32,484.37 605.69,484.98 608.7,484.98L619.74,484.98L619.74,484.61L617.88,482.55L617.88,458.8L619.74,456.74L619.75,456.74ZM523.09,483.33L515.1,483.33C513.89,479.89 511.92,475.01 515.16,470.77C516.89,468.51 519.57,467.19 522.41,467.19L523.09,467.19L523.09,483.33ZM545.42,466.33L547.29,477.28C547.1,479.32 545.64,481.83 543.06,483.35L538.46,483.35C538.68,477.33 542.8,469.58 545.42,466.33ZM547.89,492.2L546.64,492.2C541.69,492.2 539.54,489.33 538.75,486.46C538.62,485.98 538.54,485.48 538.49,484.96L540.95,484.96C546.25,484.96 547.55,487.96 547.89,492.21L547.89,492.2ZM572.13,483.33L569.26,483.33C566.71,483.33 564.32,481.74 563.07,479.4L563.07,478.92C563.07,474.27 563.2,468.79 567.59,468.79C571.98,468.79 572.11,473.86 572.11,483.15L572.11,483.33L572.13,483.33Z" style="fill:rgb(9,39,36);fill-rule:nonzero;"/>
                <path d="M305.43,456.77L305.43,456.35L297.71,456.35L297.71,456.72L299.57,458.78L299.57,483.34L286.43,483.34C287.18,482.48 287.59,481.38 287.59,480.23L287.59,468.2L289.45,466.14L289.45,465.77L283.6,465.77L283.6,480.36C283.6,482.01 282.27,483.34 280.62,483.34L275.4,483.34C276.15,482.48 276.56,481.38 276.56,480.23L276.56,467.39L272.56,467.39L272.56,480.36C272.56,482.01 271.23,483.34 269.58,483.34L263.29,483.34C264.04,482.48 264.45,481.38 264.45,480.23L264.45,469.01L260.45,469.01L260.45,480.34C260.45,481.99 259.12,483.32 257.47,483.32L245.97,483.32L245.97,468.19L247.83,466.13L247.83,465.76L240.4,465.76C236.65,465.76 233.1,467.5 230.82,470.49C226.5,476.12 228.89,481.78 230.06,484.97L241.11,484.97L241.97,483.47L241.97,484.97C241.97,490.51 237.47,493.1 233.15,492.43L233.36,493.98C235.02,494.15 239.25,495.18 242.91,491.89C244.87,490.12 245.98,487.61 245.97,484.97L259.71,484.97C260.96,484.97 262.17,484.47 263.06,483.59C263.12,483.53 263.18,483.46 263.24,483.4L264.16,484.99L271.83,484.99C273.08,484.99 274.29,484.49 275.18,483.61C275.24,483.55 275.3,483.48 275.36,483.42L276.28,485.01L282.87,485.01C284.12,485.01 285.33,484.51 286.22,483.63C286.28,483.57 286.34,483.5 286.4,483.44L287.32,485.01L305.43,485.01L305.43,484.64L303.57,482.58L303.57,458.83L305.43,456.77ZM242.01,483.33L234.02,483.33C232.81,479.89 230.84,475.01 234.08,470.77C235.81,468.51 238.49,467.19 241.33,467.19L242.01,467.19L242.01,483.33Z" style="fill:rgb(9,39,36);fill-rule:nonzero;"/>
            </g>
        </g>
        <g>
            <path d="M796.48,487.71C796.07,488.11 795.64,488.51 795.2,488.88L815.62,519.39L807.86,518.36C805.35,518.02 803.13,516.53 801.88,514.34L789.7,493.06C789.21,493.37 788.73,493.68 788.23,493.96L807.77,529.54L800,527.97C797.46,527.45 795.31,525.77 794.21,523.41L782.01,497.02C781.48,497.24 780.94,497.45 780.39,497.64L793.17,526.59L787.24,525.39C784.44,524.82 782.15,522.85 781.18,520.16L773.73,499.47C773.16,499.59 772.6,499.68 772.03,499.78L780.27,524L775.84,523.11C772.8,522.49 770.37,520.21 769.57,517.21L765.33,501.15C764.79,501.3 764.25,501.46 763.71,501.64L768.62,521.66L765.45,521.02C762.15,520.35 759.61,517.73 759.03,514.42L757.28,504.24L754.25,511.29C753.91,512.08 753.99,512.98 754.47,513.69L763.83,527.81C763.96,528 764.04,528.22 764.05,528.47L764.23,531.14L770.12,537.04L783.99,537.04L783.99,543.1L781.04,540.13L777.79,540.13L780.88,543.22L777.52,546.6L777.52,543.22L774.43,540.13L771.45,540.13L768.36,543.22L768.36,545.89L764.76,542.28L767.89,539.22L762.39,533.7L760.4,533.92C760.09,533.96 759.77,533.88 759.51,533.7L747.93,525.99L756.25,537.24L769.49,555.15L763.91,555.15C760.74,555.15 757.86,553.31 756.52,550.43L751.66,539.97C751.2,540.18 750.73,540.38 750.27,540.56L758.07,560.23L755.38,560.23C751.45,560.23 748.07,557.42 747.37,553.54L745.27,541.99C744.81,542.07 744.35,542.14 743.88,542.2L745.63,555.99C745.97,558.65 744.99,561.29 743,563.08L740.51,565.32L738.02,563.08C736.03,561.29 735.05,558.65 735.39,555.99L737.14,542.2C736.68,542.15 736.21,542.07 735.75,541.99L733.65,553.54C732.94,557.42 729.58,560.23 725.64,560.23L722.95,560.23L730.75,540.56C730.29,540.38 729.82,540.17 729.36,539.97L724.5,550.43C723.16,553.3 720.28,555.15 717.11,555.15L711.53,555.15L724.77,537.24L733.09,526L721.51,533.7C721.25,533.88 720.93,533.94 720.62,533.92L718.63,533.7L713.13,539.22L716.26,542.28L712.66,545.89L712.66,543.22L709.57,540.13L706.59,540.13L703.5,543.22L703.5,546.6L700.14,543.22L703.23,540.13L699.98,540.13L697.03,543.1L697.03,537.04L710.9,537.04L716.79,531.14L716.98,528.47C716.99,528.24 717.07,528.02 717.2,527.83L726.56,513.71C727.04,513 727.11,512.1 726.78,511.31L723.74,504.26L721.99,514.44C721.42,517.75 718.87,520.38 715.57,521.04L712.4,521.67L717.31,501.64C716.78,501.46 716.23,501.3 715.69,501.15L711.45,517.21C710.65,520.21 708.23,522.51 705.18,523.11L700.75,524L709,499.78C708.43,499.69 707.87,499.6 707.3,499.48L699.85,520.18C698.88,522.86 696.59,524.85 693.79,525.41L687.86,526.61L700.62,497.64C700.08,497.45 699.54,497.24 699.01,497.02L686.81,523.41C685.71,525.77 683.57,527.47 681.02,527.97L673.25,529.54L692.81,493.96C692.31,493.68 691.82,493.37 691.34,493.06L679.14,514.36C677.88,516.56 675.67,518.05 673.16,518.38L665.4,519.42L685.82,488.89C685.38,488.52 684.96,488.12 684.54,487.72L673.04,504.27C671.62,506.31 669.37,507.58 666.89,507.75L659.26,508.25L679.89,482.58C679.53,482.13 679.18,481.66 678.85,481.19L667.4,494.93C665.85,496.79 663.56,497.86 661.15,497.86L653.56,497.86L690.12,459.7C692.09,457.65 694.81,456.48 697.66,456.48L705.82,456.48C708,456.48 709.76,458.25 709.76,460.44L709.76,465.06C709.76,468.77 711,472.2 713.09,474.95C716.07,478.88 720.79,481.42 726.1,481.42C727.29,481.42 728.43,481.29 729.54,481.06C730.43,480.87 731.14,480.21 731.38,479.35L734.28,468.86C734.32,468.68 734.33,468.47 734.29,468.28C734.1,467 732.37,466.22 730.45,466.51C728.9,466.74 727.7,467.61 727.38,468.59C727.38,468.59 726.52,466.91 726.5,465.68C726.47,464.07 727.17,463.18 728.72,462.39L731.41,461.13C733.11,459.57 735.88,458.55 739.02,458.55C743.84,458.55 747.83,460.95 748.33,464.05L748.38,464.42L750.33,479.14C750.47,480.2 751.28,481.04 752.33,481.2C753.18,481.34 754.07,481.42 754.96,481.42C760.27,481.42 764.99,478.88 767.97,474.95C770.06,472.2 771.3,468.77 771.3,465.06L771.3,460.44C771.3,458.26 773.07,456.48 775.24,456.48L783.4,456.48C786.25,456.48 788.97,457.64 790.94,459.7L827.5,497.86L819.91,497.86C817.5,497.86 815.2,496.79 813.66,494.93L802.21,481.19C801.87,481.65 801.53,482.12 801.17,482.58L821.8,508.25L814.17,507.75C811.69,507.58 809.44,506.31 808.02,504.27L796.52,487.72L796.48,487.71Z" style="fill:rgb(185,168,123);fill-rule:nonzero;"/>
            <path d="M735.67,449.58L740.51,446.05L745.33,449.58L743.49,443.88L748.32,440.36L742.35,440.36L740.51,434.66L738.65,440.36L732.68,440.36L737.52,443.88L735.67,449.58Z" style="fill:rgb(185,168,123);fill-rule:nonzero;"/>
            <path d="M759.82,449.72L762.91,454.84L763.42,448.87L769.23,447.49L763.73,445.18L764.23,439.22L760.32,443.75L754.81,441.43L757.91,446.55L754.01,451.09L759.82,449.72Z" style="fill:rgb(185,168,123);fill-rule:nonzero;"/>
            <path d="M717.59,448.88L718.04,454.85L721.18,449.76L726.99,451.19L723.12,446.62L726.26,441.52L720.73,443.79L716.88,439.22L717.32,445.18L711.79,447.45L717.59,448.88Z" style="fill:rgb(185,168,123);fill-rule:nonzero;"/>
        </g>
    </g>
</svg>
